<?xml version="1.0" encoding="UTF-8"?>
<svg id="_레이어_2" data-name="레이어 2" xmlns="http://www.w3.org/2000/svg" viewBox="0 0 180.8 180.8">
  <defs>
    <style>
      .cls-1 {
        fill: #214740;
      }

      .cls-1, .cls-2 {
        stroke-width: 0px;
      }

      .cls-2 {
        fill: #edc6b8;
      }
    </style>
  </defs>
  <g id="Guide_레이어삭제_" data-name="Guide(레이어삭제)">
    <g>
      <path class="cls-2" d="m90.4,180.8C40.81,180.8,0,139.99,0,90.4S40.81,0,90.4,0v180.8Z"/>
      <path class="cls-1" d="m90.4,0c49.59,0,90.4,40.81,90.4,90.4s-40.81,90.4-90.4,90.4V0Z"/>
      <g>
        <g>
          <path class="cls-2" d="m90.47,49.52c9.99,1.16,19.99,2.31,29.98,3.47v24.79c-10.01.35-20.03.71-30.04,1.06-10.07-.35-20.14-.71-30.21-1.06v2.06c10.04.4,20.09.8,30.13,1.2,10.04-.4,20.08-.8,30.13-1.2v23.5c-9.98.69-19.96,1.38-29.93,2.07-19.17-1.28-38.33-2.55-57.5-3.83v1.86c19.16,1.55,38.32,3.1,57.48,4.65,9.9-.96,19.94-1.85,30.1-2.68,9.16-.75,18.22-1.43,27.18-2.05v27.86c-.05.33-.22,1.05-.8,1.74-.47.55-1,.83-1.29.96-18.38,3.57-36.76,7.15-55.14,10.72"/>
          <path class="cls-2" d="m55.37,121.41c0-22.57,0-45.15-.01-67.72,1.85-.21,3.71-.43,5.56-.64-.07,22.9-.13,45.8-.2,68.7"/>
          <path class="cls-1" d="m63.01,52.67c9.15-1.05,18.31-2.1,27.46-3.15.02,31.71.05,63.41.07,95.11-37.18-7.2-53.32-10.29-54.23-10.4-.04,0-.31-.09-.69-.13-.23-.03-1.24-.18-1.96-1.07-.53-.66-.62-1.36-.65-1.64v-27.96c12.1.78,20.89,1.69,22.34,1.81.29.02,1.04.22,1.59.85.4.46.54,1.01.59,1.43v11.66c0,.19,0,.37,0,.56.11.31.31.76.72,1.18.2.21.52.53,1.03.69.36.12.68.11.87.1.01-6.09.03-12.18.04-18.27-9.06-.62-18.12-1.24-27.17-1.86v-45.27c8.17-.95,16.34-1.91,24.51-2.86,0,7.98,0,15.97.01,23.95,0,.18,0,.5,0,.69.01.24.08.8.5,1.28.45.51,1.04.64,1.39.71.38.08.7.07.91.05v-25.17c.09-.3.3-.84.8-1.34.72-.72,1.56-.89,1.87-.94Z"/>
        </g>
        <g>
          <path class="cls-1" d="m61.22,39.34c-.5-2.5-13.15-1.71-13.19-2.66,0-.18.46-.48,4.25-1.17,5.34-.97,8-1.46,11.45-1.33,4.01.15,7.03.26,9.31,2.44,1.44,1.38,1.87,2.98,2.36,4.36,1.3,3.62,2.96,8.46,4.78,14.36-.4-.05-.8-.09-1.2-.14-1.37-3.09-2.88-5.41-4.05-7-1.54-2.09-2.35-2.92-3.55-3.23-1.71-.43-3.84.21-4.12,1.24-.24.88,1.47,1.47,2.48,3.96.22.54.35,1.02.42,1.35.03.89.05,1.79.08,2.68-2.38.28-4.77.56-7.15.84,1.17-.73,1.78-2.09,1.52-3.41-.24-1.25-1.25-2.39-2.35-2.49-1.49-.14-2.26,1.74-4.11,3.52-.1.09-.83.68-1.71,1.27-2.13,1.44-4.01,2.09-4.99,2.44-7.18,2.59-8.7,4.56-11.11,3.54-.59-.25-1.41-.75-2.2-1.9,1-1.52,2.07-2.14,2.74-2.43,1.41-.6,3.61-.8,4.22-.82.13,0,.55-.03,1.11-.14.2-.04.42-.1.71-.21,2.39-.91,3.83-2.93,5.19-4.84,1.03-1.45.93-1.53,1.93-2.94.61-.86,1.49-1.89,2.99-3.24,2.76-2.48,4.38-3.14,4.2-4.06Z"/>
          <path class="cls-1" d="m76.44,26.98c3.47-.95,7.44,2.37,7.24,6-.13,2.42-2.11,4.79-4.76,5.17-3.07.44-6.01-1.91-6.42-4.97-.37-2.79,1.46-5.53,3.93-6.21Z"/>
        </g>
        <g>
          <path class="cls-1" d="m100.99,80.18c-1.95-.08-3.32-1.23-3.82-1.7-.37.01-.73.02-1.1.04.48.75,1.36,1.91,2.82,2.63,3.5,1.73,7.04-.7,8.71,1.1.73.79.93,2.19.5,3.18-1.21,2.73-6.01,1.03-8.32,3.97-1.6,2.03-.99,5.03-.47,7.85.62,3.44,2.15,5.92,3.11,7.25.56-.04,1.11-.08,1.67-.12-2.46-6.36-2.01-11.5.29-12.75.44-.24,1.62-.7,3.96.37.61,5.2,2.27,16.34,6.62,21.73.38.47,1.55,1.91,2.1,1.67.99-.43-.3-5.58-1.46-9.63-1.59-5.43-1.01-8.9-.15-11.09.44-1.12,1.23-2.63,1.58-5.06.15-1.06.18-2.03-.12-5.3-.78-8.48-1.68-9.68-2.48-10.36-.88-.74-1.08-.38-2.63-1.46-1.81-1.26-2.88-2.69-3.94-4.23-1.43-2.08-2.63-3.84-3.79-5.98-.67-1.23-1.16-2.29-1.5-3.04-.93-2.06-2.06-4.98-2.97-8.69-.41-.05-.82-.09-1.23-.14.95,4.59,2.27,8.67,3.76,12.28,3.07,7.45,6.02,10.98,4.42,14.18-.9,1.78-3.15,3.41-5.56,3.31Z"/>
          <path class="cls-1" d="m107.28,66.17c-.87-3.22,1.18-6.48,4.26-7.1,3.17-.64,6.13,1.77,6.63,4.73.42,2.5-.94,5.21-3.31,6.15-2.78,1.1-6.35-.46-7.57-3.79Z"/>
        </g>
      </g>
    </g>
  </g>
</svg>