<?xml version="1.0" encoding="UTF-8"?>
<svg id="_레이어_2" data-name="레이어 2" xmlns="http://www.w3.org/2000/svg" viewBox="0 0 133.16 133.17">
  <defs>
    <style>
      .cls-1 {
        fill: #214740;
      }

      .cls-1, .cls-2 {
        stroke-width: 0px;
      }

      .cls-2 {
        fill: #edc6b8;
      }
    </style>
  </defs>
  <g id="Guide_레이어삭제_" data-name="Guide(레이어삭제)">
    <g>
      <path class="cls-2" d="m66.58,133.16C30.06,133.16,0,103.11,0,66.58S30.06,0,66.58,0v133.16Z"/>
      <path class="cls-1" d="m66.58,0c36.53,0,66.58,30.06,66.58,66.58s-30.06,66.58-66.58,66.58V0Z"/>
      <g>
        <g>
          <path class="cls-2" d="m66.64,36.47c7.36.85,14.72,1.7,22.08,2.55v18.26c-7.38.26-14.75.52-22.13.78-7.42-.26-14.84-.52-22.25-.78v1.52c7.4.29,14.79.59,22.19.88,7.4-.3,14.79-.59,22.19-.88v17.31c-7.35.51-14.7,1.02-22.05,1.52-14.12-.94-28.24-1.88-42.35-2.82v1.37c14.11,1.14,28.22,2.29,42.34,3.43,7.3-.7,14.69-1.36,22.17-1.98,6.74-.55,13.42-1.05,20.02-1.51v20.52c-.04.24-.16.78-.59,1.28-.35.41-.74.61-.95.71-13.54,2.63-27.08,5.26-40.61,7.9"/>
          <path class="cls-2" d="m40.78,89.43c0-16.63,0-33.25-.01-49.88,1.36-.16,2.73-.32,4.09-.47-.05,16.87-.1,33.73-.15,50.6"/>
          <path class="cls-1" d="m46.41,38.79c6.74-.77,13.48-1.55,20.23-2.32.02,23.35.04,46.7.05,70.06-27.39-5.31-39.27-7.58-39.94-7.66-.03,0-.23-.06-.51-.1-.17-.02-.91-.13-1.45-.79-.39-.48-.46-1-.48-1.21v-20.6c8.91.57,15.39,1.24,16.46,1.33.21.02.77.16,1.17.63.29.34.4.74.44,1.05v8.59c0,.14,0,.28,0,.41.08.22.23.56.53.87.15.16.38.39.76.51.27.09.5.08.64.07,0-4.49.02-8.97.03-13.46-6.67-.46-13.34-.91-20.02-1.37v-33.35c6.02-.7,12.04-1.41,18.05-2.11,0,5.88,0,11.76,0,17.64,0,.13,0,.37,0,.51,0,.18.06.59.37.94.33.38.77.47,1.02.52.28.06.51.05.67.04v-18.54c.07-.22.22-.62.59-.99.53-.53,1.15-.66,1.38-.69Z"/>
        </g>
        <g>
          <path class="cls-1" d="m45.09,28.97c-.36-1.84-9.69-1.26-9.72-1.96,0-.14.34-.35,3.13-.86,3.93-.72,5.89-1.08,8.43-.98,2.96.11,5.18.19,6.85,1.8,1.06,1.02,1.38,2.19,1.74,3.21.95,2.67,2.18,6.23,3.52,10.58-.29-.03-.59-.07-.88-.1-1.01-2.27-2.12-3.98-2.99-5.15-1.14-1.54-1.73-2.15-2.61-2.38-1.26-.32-2.83.15-3.03.91-.17.65,1.08,1.08,1.83,2.91.16.4.25.75.31,1,.02.66.04,1.32.06,1.98-1.76.21-3.51.41-5.27.62.86-.54,1.31-1.54,1.12-2.51-.18-.92-.92-1.76-1.73-1.84-1.1-.1-1.66,1.28-3.02,2.59-.07.07-.61.5-1.26.94-1.57,1.06-2.96,1.54-3.68,1.8-5.29,1.91-6.41,3.36-8.18,2.61-.43-.18-1.04-.55-1.62-1.4.74-1.12,1.52-1.58,2.02-1.79,1.04-.45,2.66-.59,3.11-.6.09,0,.41-.02.82-.1.15-.03.31-.08.52-.16,1.76-.67,2.82-2.16,3.82-3.56.76-1.07.69-1.13,1.42-2.17.45-.63,1.1-1.39,2.2-2.39,2.04-1.83,3.23-2.31,3.09-2.99Z"/>
          <path class="cls-1" d="m56.3,19.87c2.55-.7,5.48,1.75,5.33,4.42-.1,1.78-1.55,3.53-3.51,3.81-2.26.33-4.43-1.41-4.73-3.66-.27-2.06,1.07-4.07,2.9-4.57Z"/>
        </g>
        <g>
          <path class="cls-1" d="m74.38,59.05c-1.43-.06-2.45-.91-2.81-1.25-.27,0-.54.02-.81.03.35.55,1,1.41,2.08,1.93,2.58,1.27,5.19-.51,6.42.81.54.58.69,1.61.36,2.34-.89,2.01-4.42.76-6.13,2.92-1.18,1.5-.73,3.7-.35,5.78.46,2.53,1.58,4.36,2.29,5.34.41-.03.82-.06,1.23-.09-1.81-4.69-1.48-8.47.22-9.39.32-.18,1.19-.52,2.92.27.45,3.83,1.67,12.04,4.88,16.01.28.35,1.14,1.41,1.55,1.23.73-.32-.22-4.11-1.07-7.09-1.17-4-.74-6.55-.11-8.17.32-.82.91-1.93,1.16-3.73.11-.78.13-1.5-.09-3.9-.57-6.25-1.24-7.13-1.83-7.63-.65-.55-.8-.28-1.93-1.07-1.33-.93-2.12-1.98-2.9-3.12-1.06-1.54-1.94-2.83-2.79-4.4-.49-.91-.85-1.69-1.1-2.24-.68-1.52-1.52-3.67-2.19-6.4-.3-.03-.61-.07-.91-.1.7,3.38,1.67,6.39,2.77,9.05,2.26,5.49,4.44,8.09,3.25,10.44-.66,1.31-2.32,2.51-4.1,2.44Z"/>
          <path class="cls-1" d="m79.02,48.74c-.64-2.37.87-4.77,3.14-5.23,2.33-.47,4.51,1.31,4.88,3.49.31,1.84-.69,3.84-2.44,4.53-2.05.81-4.67-.34-5.58-2.79Z"/>
        </g>
      </g>
    </g>
  </g>
</svg>